<svg id="图层_1" data-name="图层 1" xmlns="http://www.w3.org/2000/svg" viewBox="0 0 206 140.59"><defs><style>.cls-1,.cls-2{fill:#fff;}.cls-1{stroke:#000;stroke-miterlimit:10;}</style></defs><title>crown</title><polygon class="cls-1" points="18.45 61.76 60.69 140.09 101.95 140.09 101.95 23.59 73.46 81.84 18.45 61.76"/><polygon class="cls-1" points="131.95 82.09 102.95 24.09 102.95 140.09 144.95 140.09 187.95 62.09 131.95 82.09"/><path class="cls-1" d="M926.05,468.91a9,9,0,1,1-9,9,9,9,0,0,1,9-9" transform="translate(-916.55 -425.41)"/><path class="cls-1" d="M1028.05,434.41a8.5,8.5,0,1,1-8.5-8.5,8.5,8.5,0,0,1,8.5,8.5" transform="translate(-916.55 -425.41)"/><circle class="cls-2" cx="197" cy="52" r="8.5"/><path class="cls-1" d="M1122.05,477.66a8.5,8.5,0,1,1-8.5-8.5,8.5,8.5,0,0,1,8.5,8.5" transform="translate(-916.55 -425.41)"/></svg>