<?xml version="1.0" standalone="no"?>
<!DOCTYPE svg PUBLIC "-//W3C//DTD SVG 20010904//EN"
 "http://www.w3.org/TR/2001/REC-SVG-20010904/DTD/svg10.dtd">
<svg version="1.0" xmlns="http://www.w3.org/2000/svg"
 width="905.000000pt" height="495.000000pt" viewBox="0 0 905.000000 495.000000"
 preserveAspectRatio="xMidYMid meet">
<metadata>
Created by potrace 1.16, written by Peter Selinger 2001-2019
</metadata>
<g transform="translate(0.000000,495.000000) scale(0.100000,-0.100000)"
fill="#000000" stroke="none">
<path d="M2885 4840 c-53 -53 -93 -98 -90 -101 3 -3 -43 -50 -102 -104 -60
-55 -123 -118 -142 -142 -41 -53 -53 -57 -16 -5 l27 37 -36 -40 c-24 -26 -44
-64 -57 -109 -19 -61 -20 -75 -10 -138 11 -67 59 -207 82 -238 9 -13 10 -12 5
3 -16 46 -16 50 -1 24 9 -16 14 -35 11 -43 -3 -8 -2 -13 3 -10 11 7 33 -53 24
-67 -4 -6 -1 -7 7 -2 10 6 12 4 7 -9 -5 -11 -3 -15 5 -10 8 5 9 2 5 -10 -4 -9
-3 -15 2 -12 5 4 25 -22 44 -56 18 -35 49 -89 66 -120 18 -32 31 -58 28 -58
-3 0 -33 50 -67 110 -34 61 -64 110 -66 110 -13 0 117 -221 133 -227 8 -3 20
-18 28 -34 18 -34 19 -43 3 -33 -7 5 -8 3 -4 -5 5 -7 11 -10 14 -6 3 3 26 -25
49 -62 54 -85 65 -103 59 -103 -2 0 -26 34 -52 75 -46 72 -68 99 -43 53 22
-41 131 -208 136 -208 2 0 1 5 -2 10 -3 6 -4 10 -1 10 3 0 12 -13 20 -29 l15
-28 -48 -23 c-28 -13 -54 -19 -62 -15 -7 5 -10 4 -6 -2 5 -8 -172 -104 -191
-102 -4 0 36 23 88 50 52 28 88 48 80 45 -13 -4 -224 -99 -300 -134 l-25 -12
25 6 c14 4 32 8 40 11 8 2 0 -4 -19 -12 -18 -9 -40 -14 -48 -11 -8 3 -12 2 -9
-2 6 -10 -114 -46 -244 -72 -104 -22 -256 -26 -339 -10 -57 11 -200 65 -216
82 -7 8 -6 8 5 3 13 -8 13 -7 1 8 -16 20 -36 23 -25 5 4 -8 3 -10 -2 -5 -5 5
-9 12 -9 16 0 4 -38 38 -85 75 -80 63 -53 31 35 -42 l40 -34 -50 34 c-27 18
-112 96 -190 173 -78 77 -92 93 -31 35 l110 -105 -78 87 c-42 47 -94 99 -114
114 -39 29 -71 64 -72 77 0 5 6 5 12 0 28 -17 -72 98 -127 147 -79 70 -162
109 -245 115 -61 4 -62 4 -15 -4 84 -14 128 -29 178 -61 26 -16 47 -32 47 -34
0 -3 -22 8 -48 25 -66 41 -140 59 -242 59 -94 0 -184 -19 -239 -51 l-36 -21
25 21 c31 25 106 51 180 62 54 8 54 8 -12 4 -72 -4 -155 -34 -184 -66 -9 -10
-13 -19 -9 -19 4 0 0 -9 -9 -19 -26 -28 -31 -89 -11 -141 9 -25 19 -52 21 -61
4 -11 -8 -22 -46 -37 -29 -12 -57 -19 -63 -15 -6 3 -7 1 -3 -6 5 -8 -3 -16
-23 -24 -21 -7 -31 -18 -31 -32 0 -21 -78 -316 -85 -324 -8 -8 -5 17 5 45 6
15 9 29 6 31 -2 2 -39 -100 -81 -227 -42 -127 -75 -233 -73 -235 2 -2 23 54
47 126 24 72 45 129 47 126 2 -2 -14 -57 -37 -123 -22 -65 -56 -177 -75 -249
-18 -71 -31 -113 -28 -92 3 21 7 46 10 55 5 14 4 15 -4 2 -15 -22 -42 -162
-42 -215 0 -48 15 -89 29 -80 5 2 8 -3 7 -13 0 -11 13 -24 37 -36 35 -17 38
-21 33 -50 -3 -17 -8 -51 -10 -76 -4 -32 -1 -27 9 20 16 74 19 111 8 109 -21
-3 -41 2 -59 17 -18 15 -18 15 3 5 12 -6 33 -11 47 -11 33 0 33 -6 1 -185
l-24 -140 19 -195 c28 -271 27 -262 10 -267 -13 -4 -13 -3 0 7 13 10 13 11 0
7 -8 -2 -15 -8 -15 -13 0 -5 -9 -21 -18 -36 -13 -18 -17 -37 -13 -60 23 -135
29 -265 18 -353 -11 -86 -58 -262 -68 -253 -2 3 5 31 16 63 32 93 16 75 -19
-22 -45 -122 -52 -222 -18 -278 13 -22 30 -39 38 -38 8 1 25 -7 39 -18 14 -11
19 -18 13 -14 -7 3 -13 4 -13 1 0 -9 78 -46 95 -46 9 0 44 -26 77 -57 34 -32
58 -52 54 -45 -4 6 -5 12 -3 12 10 0 91 -50 82 -50 -16 -1 43 -30 104 -51 114
-40 441 -101 526 -98 17 1 -31 9 -105 20 -153 21 -302 51 -397 80 -95 30 -73
32 26 3 172 -50 486 -93 836 -114 126 -8 710 -10 1940 -7 1482 3 1802 6 2025
20 391 24 693 46 885 62 228 20 322 26 310 21 -11 -5 -373 -38 -665 -60 -96
-8 -152 -14 -125 -15 110 -2 733 52 1075 94 221 28 269 37 150 30 -108 -6 -71
1 150 30 283 36 495 80 793 166 80 23 148 37 160 34 16 -5 18 -4 8 3 -10 7 -4
13 25 22 22 7 77 30 123 51 113 53 117 48 6 -7 -49 -25 -79 -42 -65 -38 34 9
229 105 236 116 4 5 -12 0 -35 -11 -23 -12 -41 -19 -41 -16 0 11 82 45 93 39
7 -4 9 -4 5 1 -5 5 6 17 22 27 36 21 44 23 34 5 -4 -7 -3 -9 2 -4 5 5 9 12 9
17 0 5 31 31 68 58 95 69 312 284 376 371 29 41 48 70 42 67 -21 -14 -22 21
-1 75 24 60 49 292 35 325 -4 10 -10 33 -12 49 -18 133 -74 266 -145 341 -26
28 -45 53 -42 56 15 15 -127 90 -213 112 -94 25 -98 18 -5 -10 82 -24 159 -58
197 -88 11 -9 -16 2 -60 24 -129 65 -327 103 -601 116 -71 3 -145 7 -164 9
-19 2 -64 5 -100 6 -57 2 -60 3 -25 8 33 5 18 9 -80 19 -174 20 -327 48 -503
92 -85 22 -157 38 -159 36 -10 -9 431 -114 497 -117 16 -1 19 -3 8 -6 -32 -8
-318 54 -500 109 -37 11 -71 20 -75 20 -5 0 -12 3 -18 8 -5 4 -36 14 -69 21
-36 8 -52 15 -42 19 10 3 -54 25 -146 49 -111 30 -172 51 -191 67 -35 30 -68
38 -110 29 -46 -10 -113 -8 -139 5 -21 10 -21 10 -5 -3 24 -20 93 -30 117 -17
40 22 125 3 147 -33 4 -7 65 -28 136 -47 70 -18 125 -35 123 -37 -2 -2 -60 10
-127 28 -93 24 -133 40 -158 62 -30 26 -39 28 -80 22 -111 -16 -188 5 -255 68
-16 15 -35 27 -42 27 -8 0 -14 11 -14 25 0 35 -24 79 -56 104 -15 12 -23 21
-18 21 5 0 2 5 -6 10 -8 5 -33 9 -55 8 l-40 -1 45 -8 45 -7 -52 1 c-28 1 -50
0 -48 -3 2 -3 -7 -13 -20 -22 -21 -16 -23 -16 -52 11 -17 15 -51 40 -76 56
-44 28 -49 36 -60 108 -2 9 -9 23 -15 29 -12 12 -16 13 -102 27 l-55 8 43 2
c24 0 53 -4 65 -10 22 -10 22 -10 2 6 -25 20 -122 17 -117 -3 1 -8 -2 -11 -7
-8 -5 4 -21 2 -36 -4 -16 -6 -24 -6 -20 0 3 5 -8 16 -25 25 -18 9 -30 23 -30
36 0 19 -26 79 -35 79 -2 0 3 -16 11 -35 7 -19 14 -42 13 -52 0 -10 -6 0 -13
22 -34 108 -69 126 -199 102 -9 -2 -23 -10 -30 -17 -10 -12 -9 -12 8 0 19 13
19 13 4 -4 -15 -16 -18 -16 -52 0 -20 10 -34 20 -32 24 2 4 -13 17 -34 29 -36
19 -40 26 -46 74 -4 28 -12 59 -17 67 -8 13 -9 13 -5 -1 3 -9 8 -42 11 -75 5
-52 4 -50 -10 21 -8 43 -20 85 -25 92 -6 6 -8 16 -5 21 17 28 -85 72 -142 62
-33 -6 -42 -2 -87 34 -27 23 -44 33 -36 23 29 -37 -7 -14 -47 30 -24 27 -41
40 -38 30 3 -11 2 -16 -4 -12 -6 3 -7 17 -4 30 9 35 -13 91 -46 119 -16 13
-27 26 -24 29 3 2 -7 2 -21 0 -14 -3 -25 -1 -25 6 0 5 7 8 15 5 9 -4 -3 25
-29 72 -24 44 -47 79 -52 79 -20 2 -54 17 -50 23 2 4 -22 7 -54 7 -32 0 -56
-2 -53 -5 2 -3 -13 -12 -34 -21 -38 -16 -38 -16 -75 14 -20 16 -83 80 -138
141 l-102 111 109 -111 c59 -60 122 -121 138 -135 27 -21 -185 203 -274 291
l-36 35 35 -40 35 -40 -43 40 c-27 25 -40 45 -37 54 3 9 3 12 -1 8 -4 -4 -18
3 -31 15 -24 23 -32 44 -10 32 16 -10 -84 105 -114 131 -13 11 5 -13 40 -52
35 -40 61 -73 58 -73 -10 0 -157 172 -153 178 3 4 -29 44 -71 87 -41 44 -69
71 -62 60 7 -11 40 -49 73 -85 36 -39 21 -27 -36 29 -53 52 -95 98 -93 101 9
14 -152 150 -170 144 -5 -2 -24 9 -40 24 -17 15 -24 23 -15 17 10 -6 8 -2 -4
13 -20 23 -42 31 -30 10 5 -9 2 -9 -9 1 -18 15 -23 26 -7 16 6 -3 10 -4 10 -2
0 5 -132 105 -159 122 -10 5 -12 4 -7 -3 4 -7 3 -12 -3 -12 -5 0 -13 5 -16 10
-4 6 -26 10 -50 9 -41 -3 -50 -9 -140 -99z m250 -35 c47 -33 85 -63 85 -66 0
-4 -60 -58 -132 -120 -181 -155 -311 -285 -338 -338 -17 -35 -21 -56 -18 -98
l5 -54 -60 -36 c-58 -35 -60 -35 -74 -17 -24 33 -53 150 -53 215 1 98 23 136
153 258 62 58 162 154 222 213 61 59 113 107 117 105 4 -1 46 -29 93 -62z
m211 -162 c143 -117 264 -240 475 -485 68 -79 182 -203 253 -276 77 -78 126
-136 120 -141 -5 -5 -65 -34 -133 -65 l-125 -56 -69 11 c-66 10 -173 8 -227
-5 -83 -19 -57 -41 -308 261 -126 153 -259 313 -294 355 -34 42 -68 77 -75 78
-6 0 -44 -31 -84 -70 -77 -74 -99 -85 -99 -46 0 42 89 144 248 284 86 76 174
154 196 174 23 21 43 38 47 38 3 0 36 -25 75 -57z m-102 -735 c152 -183 273
-335 269 -339 -12 -11 -465 -279 -473 -279 -12 0 -300 489 -370 629 -46 92
-47 85 25 123 62 32 156 102 205 152 24 25 50 46 56 46 7 0 137 -149 288 -332z
m1199 -175 c8 -10 25 -40 36 -67 l21 -48 -29 -33 c-16 -18 -30 -37 -32 -43 -4
-8 -307 -151 -446 -209 -81 -34 -103 -26 -138 54 -37 82 -32 102 35 135 168
84 489 226 511 227 14 1 33 -7 42 -16z m-3514 -72 c83 -26 147 -76 221 -173
144 -188 321 -361 470 -459 80 -53 200 -104 283 -120 70 -13 226 -13 312 1
235 37 556 167 938 380 120 68 156 80 128 46 -12 -14 -222 -141 -401 -241
-145 -82 -360 -183 -455 -215 -266 -88 -473 -81 -666 22 -119 63 -225 148
-424 338 -195 186 -278 252 -355 281 -58 22 -130 24 -180 4 -85 -33 -118 -43
-161 -49 -46 -7 -47 -7 -68 34 -27 53 -27 91 2 118 53 50 244 68 356 33z
m2910 -80 c2 -1 -8 -10 -23 -22 -37 -29 -59 -76 -53 -113 3 -18 20 -63 37
-100 29 -60 38 -71 77 -88 29 -13 54 -17 71 -13 15 3 103 40 196 81 165 74
187 80 225 55 12 -8 9 -24 -17 -100 -45 -128 -42 -179 15 -227 l24 -21 -98
-51 -98 -52 -190 84 c-104 47 -296 130 -425 186 -129 56 -238 105 -242 109
-13 12 147 174 207 210 83 50 141 67 221 65 38 -1 71 -3 73 -3z m752 -31 c13
-7 19 -21 19 -45 0 -45 -116 -377 -137 -392 -27 -21 -61 -15 -79 12 -16 24
-14 32 47 212 75 220 92 244 150 213z m-3606 -94 c69 -32 138 -88 290 -236
295 -287 446 -389 655 -441 266 -67 617 46 1162 374 98 59 184 107 192 107 9
0 82 -29 163 -64 656 -283 673 -291 673 -304 0 -4 -73 -46 -163 -93 -89 -47
-331 -176 -538 -288 l-377 -202 -93 27 c-52 14 -98 30 -102 34 -4 4 8 64 28
133 19 69 35 134 35 145 0 16 -15 25 -77 46 -190 61 -342 106 -361 106 -25 0
-34 -16 -103 -175 -38 -88 -51 -109 -66 -107 -10 2 -137 36 -283 77 -146 40
-304 83 -352 96 -49 12 -88 27 -88 34 0 9 -330 114 -406 129 -79 15 -184 51
-184 63 0 7 3 13 8 13 15 0 55 71 62 110 20 111 -76 313 -186 392 -24 17 -44
35 -44 40 0 18 106 7 155 -16z m-187 -42 c73 -30 142 -117 187 -237 28 -77 32
-125 10 -167 -17 -32 -72 -70 -104 -70 -17 0 -24 -11 -38 -60 -16 -60 -21 -65
-238 -278 -288 -283 -427 -395 -472 -378 -39 15 -1 203 111 545 36 108 85 266
111 351 26 85 50 166 54 179 13 44 208 129 299 130 23 1 59 -6 80 -15z m4176
-173 c11 -12 24 -62 37 -138 23 -143 23 -129 -1 -153 -28 -28 -105 -28 -120 0
-18 34 -48 242 -39 268 16 41 93 56 123 23z m-290 -31 c39 -22 77 -43 84 -48
7 -5 17 -37 22 -73 6 -35 13 -75 16 -89 9 -40 -10 -15 -66 90 -29 52 -54 97
-55 99 -2 2 -29 -11 -59 -29 -39 -22 -56 -27 -56 -18 0 20 31 108 37 108 3 0
38 -18 77 -40z m491 -239 c3 -6 -7 -36 -23 -68 -49 -97 -66 -162 -66 -243 1
-65 6 -86 38 -154 20 -44 55 -105 78 -135 65 -86 252 -275 358 -359 52 -42
119 -98 147 -125 57 -51 121 -85 218 -114 51 -15 115 -18 445 -21 690 -6 1583
45 2045 118 83 13 122 19 180 26 28 3 68 10 90 14 34 8 46 5 83 -16 48 -28
116 -110 142 -169 9 -22 25 -73 35 -114 l18 -74 -33 -101 c-32 -96 -37 -105
-104 -172 -79 -79 -165 -130 -321 -192 -97 -39 -257 -92 -275 -92 -5 0 -43 51
-84 113 -120 183 -222 269 -396 336 -209 81 -487 97 -1155 66 -599 -27 -830
-20 -1230 41 -118 18 -195 35 -195 44 0 5 14 31 30 57 70 111 102 284 76 418
-39 198 -164 353 -476 587 -129 96 -148 107 -175 102 -16 -4 -31 -7 -32 -8 -1
-1 3 -47 8 -101 47 -442 -109 -530 -781 -438 -284 38 -263 34 -248 48 13 13
448 249 883 480 116 61 245 131 288 154 l78 44 29 -28 c23 -22 41 -29 82 -32
89 -7 159 46 161 120 l1 35 37 -19 c21 -10 40 -23 44 -28z m209 11 c9 -10 29
-77 46 -148 27 -116 28 -131 14 -151 -17 -27 -55 -30 -76 -5 -8 9 -28 77 -43
149 -28 129 -28 133 -10 153 23 25 47 26 69 2z m-124 -172 c29 -136 50 -184
89 -204 80 -42 160 1 168 90 3 27 1 66 -5 87 -11 38 -7 43 17 28 10 -7 13 -38
12 -132 -1 -104 1 -130 17 -158 35 -65 118 -89 179 -51 43 26 57 54 63 127 l5
61 65 -39 c36 -22 64 -44 63 -49 -6 -20 20 -166 34 -193 49 -97 189 -83 226
24 l12 34 58 -31 59 -31 -54 -47 c-98 -88 -518 -346 -561 -346 -42 0 -320 253
-434 395 -113 142 -150 251 -123 366 16 68 71 193 80 182 4 -4 17 -55 30 -113z
m452 -7 c15 -14 18 -32 18 -131 0 -128 -10 -152 -61 -152 -47 0 -59 30 -59
152 0 95 2 110 20 128 24 24 57 26 82 3z m-2994 -133 c68 -21 125 -40 127 -42
9 -9 -63 -233 -76 -235 -8 -2 -97 22 -199 51 -130 38 -184 59 -182 68 5 21 85
202 94 215 10 13 10 13 236 -57z m-1918 6 c0 -11 130 -56 207 -70 51 -10 103
-28 103 -35 0 -5 -19 -21 -42 -36 -81 -54 -238 -176 -375 -293 -76 -64 -174
-144 -218 -177 -93 -71 -254 -170 -262 -162 -3 3 2 46 10 94 9 48 19 113 23
144 l6 57 87 70 c47 38 167 149 266 245 99 97 183 176 188 177 4 0 7 -6 7 -14z
m4015 -115 c55 -42 148 -123 206 -181 93 -93 112 -117 154 -203 49 -97 49 -98
52 -210 2 -98 -1 -121 -23 -187 -31 -90 -99 -195 -162 -250 -65 -56 -186 -115
-278 -136 -236 -52 -608 33 -1176 271 -206 87 -579 253 -590 264 -4 3 99 64
229 135 l236 128 201 -31 c293 -45 391 -54 560 -49 124 4 163 9 216 27 112 39
166 93 206 203 12 32 16 80 15 186 l-1 144 28 -18 c15 -9 72 -51 127 -93z
m-3135 69 c47 -12 186 -50 310 -85 124 -36 275 -77 335 -93 222 -59 620 -173
628 -181 4 -4 -66 -47 -155 -95 l-162 -87 -36 14 c-19 8 -213 90 -430 182
-217 92 -447 189 -510 215 -126 52 -132 59 -110 126 9 25 16 33 28 30 10 -2
55 -14 102 -26z m4406 -28 c20 -13 32 -47 39 -113 9 -84 -2 -109 -50 -109 -42
0 -51 14 -66 109 -9 62 -8 75 5 96 16 25 50 32 72 17z m-4731 -96 c133 -41
141 -42 155 -25 14 16 30 11 280 -96 146 -62 377 -160 513 -217 136 -58 249
-109 249 -114 1 -7 -161 -104 -195 -116 -6 -2 85 -182 130 -256 6 -10 60 14
222 102 118 63 217 113 220 112 17 -10 445 -202 556 -249 332 -141 656 -253
850 -293 179 -37 364 -39 480 -6 97 28 174 68 253 132 33 27 62 47 64 45 7 -8
352 -65 483 -80 219 -26 486 -29 901 -10 450 20 908 16 1039 -9 222 -44 356
-117 469 -254 56 -70 126 -179 126 -198 0 -14 -118 -44 -305 -78 -748 -135
-1432 -127 -2700 29 -154 19 -305 37 -335 40 -30 3 -217 29 -415 56 l-360 51
-108 55 c-342 172 -700 265 -1277 330 -227 25 -882 25 -1060 0 -126 -18 -239
-43 -319 -72 l-43 -15 -49 36 c-90 66 -143 79 -319 78 -163 0 -307 -20 -512
-68 -57 -13 -105 -22 -108 -20 -2 3 -14 96 -26 207 -15 148 -18 205 -10 213 6
6 67 46 136 89 159 99 204 133 375 280 204 175 456 365 485 364 8 0 78 -20
155 -43z m5186 -154 c18 -15 22 -28 21 -62 -3 -64 -21 -94 -59 -98 -24 -2 -35
2 -47 21 -22 32 -7 114 24 139 28 22 32 22 61 0z m-156 -31 c-26 -120 22 -201
121 -201 55 0 111 59 120 128 4 34 11 52 20 52 8 0 90 -18 184 -41 191 -46
195 -49 139 -114 -38 -43 -76 -55 -314 -95 -267 -45 -358 -76 -533 -184 l-92
-57 -79 20 c-83 21 -169 59 -190 85 -11 13 -9 18 19 33 17 10 111 65 209 123
187 111 294 185 350 244 42 44 55 45 46 7z m780 -160 c103 -30 273 -69 330
-76 28 -3 57 -8 65 -10 35 -10 281 -36 485 -50 356 -25 529 -48 522 -69 -4
-11 -158 -39 -277 -50 -36 -3 -128 -12 -205 -21 -165 -17 -661 -51 -965 -65
-271 -13 -960 -13 -960 -1 0 15 200 109 278 130 41 11 133 30 205 41 280 46
354 75 398 161 14 29 25 39 37 35 9 -3 49 -14 87 -25z m-6140 -747 c33 -8 80
-27 104 -41 l43 -25 -40 -42 c-53 -55 -64 -78 -64 -141 -1 -96 83 -235 252
-417 l71 -78 -318 -156 -318 -156 -195 6 c-273 9 -420 40 -449 94 -19 36 -12
99 23 210 67 209 79 326 52 522 -13 91 -13 96 6 112 25 22 88 41 243 74 257
53 477 68 590 38z m1535 -10 c388 -32 761 -103 1025 -194 334 -115 601 -286
862 -551 139 -142 334 -371 324 -382 -4 -4 -149 -2 -322 4 -173 6 -640 9
-1039 7 -1095 -5 -1561 -2 -1815 11 -266 13 -719 42 -722 45 -1 1 132 69 297
151 256 127 297 151 290 166 -5 9 -7 18 -5 21 3 3 -36 49 -86 104 -230 250
-285 366 -216 457 16 21 50 48 77 62 213 108 751 148 1330 99z m6413 -91 c-40
-350 -381 -541 -1353 -761 -196 -45 -519 -108 -594 -117 -27 -3 -103 -14 -170
-25 -563 -89 -1215 -140 -1816 -140 l-175 0 -120 147 c-143 178 -389 426 -502
508 -57 41 -77 61 -65 63 10 2 164 -17 342 -42 179 -25 352 -47 385 -51 33 -3
166 -19 295 -35 1289 -159 2033 -156 2830 14 188 40 268 62 395 107 280 98
449 208 515 333 14 25 28 46 32 46 4 0 4 -21 1 -47z m-283 -492 c0 -11 -117
-106 -199 -161 -70 -47 -245 -133 -356 -175 -186 -70 -591 -170 -870 -214
-557 -88 -1515 -165 -2500 -201 -438 -16 -1787 -33 -2090 -26 -154 3 -428 8
-610 11 -904 15 -1482 91 -1677 220 -47 31 -48 42 -6 38 18 -2 121 -8 228 -13
107 -6 249 -14 315 -20 624 -50 1172 -63 2012 -50 552 8 806 8 1176 -2 571
-16 1307 -15 1587 1 245 14 589 45 795 71 83 10 176 22 208 25 203 20 878 150
1178 225 266 67 549 161 694 231 108 51 115 54 115 40z"/>
<path d="M2505 715 c-587 -13 -577 -11 -609 -79 -20 -42 -21 -125 -2 -170 7
-18 26 -43 42 -56 l29 -22 436 7 c955 15 1101 20 1136 38 44 23 63 64 63 137
0 76 -20 124 -59 144 -36 19 -217 19 -1036 1z m1013 -67 c16 -16 16 -133 0
-145 -7 -6 -67 -13 -134 -16 l-121 -6 -21 45 c-27 54 -20 59 8 5 l20 -40 112
6 c155 8 165 19 13 15 l-123 -4 -33 61 c-18 33 -35 58 -37 56 -2 -2 1 -13 8
-24 6 -12 8 -21 6 -21 -3 0 -12 13 -21 30 l-15 29 169 -2 c93 -1 167 0 164 3
-2 3 -82 7 -176 10 l-172 6 170 2 c122 1 174 -1 183 -10z m-741 -88 l-42 -90
-86 0 -86 0 -37 80 c-20 43 -36 81 -36 84 0 5 81 9 252 14 l76 2 -41 -90z
m331 63 c30 -45 76 -133 70 -138 -2 -3 -84 -8 -181 -11 -130 -5 -177 -4 -177
4 0 7 17 45 37 86 l37 75 50 4 c138 9 143 9 164 -20z m-662 -68 c19 -42 32
-80 29 -85 -10 -16 -285 -13 -285 3 0 6 14 45 32 85 l32 72 78 0 79 0 35 -75z
m-283 38 c-4 -10 -8 -11 -13 -3 -4 6 -18 -14 -33 -49 l-26 -61 -55 0 c-59 0
-66 7 -66 65 0 64 3 66 105 64 77 -1 92 -4 88 -16z"/>
</g>
</svg>
