<?xml version="1.0" encoding="utf-8"?>
<!-- Svg Vector Icons : http://www.onlinewebfonts.com/icon -->
<!DOCTYPE svg PUBLIC "-//W3C//DTD SVG 1.1//EN" "http://www.w3.org/Graphics/SVG/1.1/DTD/svg11.dtd">
<svg version="1.1" xmlns="http://www.w3.org/2000/svg" xmlns:xlink="http://www.w3.org/1999/xlink" x="0px" y="0px" viewBox="0 0 1000 1000" enable-background="new 0 0 1000 1000" xml:space="preserve">
<metadata> Svg Vector Icons : http://www.onlinewebfonts.com/icon </metadata>
<g><g transform="translate(0.000000,343.000000) scale(0.100000,-0.100000)"><path d="M2652.1,1653c-814.9-46-1110.1-69-1160-90.1c-72.9-30.7-184.1-145.7-210.9-216.7c-9.6-24.9-23-99.7-30.7-166.8c-9.6-99.7-49.8-197.5-228.2-571.4L807.6,157.5l-51.8-373.9c-113.1-812.9-247.3-1441.8-385.4-1792.7c-44.1-117-94-264.6-107.4-325.9c-36.4-164.9-28.8-611.6,15.3-814.9l34.5-163l-61.4-103.5c-147.6-245.4-191.7-569.5-113.1-807.2c42.2-128.5,141.9-312.5,218.6-402.6c51.8-61.4,63.3-65.2,187.9-70.9c72.9-3.8,1171.5-42.2,2442.7-82.4c1951.9-65.2,2504-76.7,3556.7-76.7c1156.1,0,1265.4,3.8,1514.7,40.3c1075.6,157.2,1698.8,425.6,1806.2,780.4c49.8,168.7,46,554.1-9.6,696c-23,59.4-61.4,124.6-86.3,145.7c-23,21.1-546.5,224.3-1163.8,448.7c-952.9,349-1129.3,419.9-1179.2,469.7c-30.7,32.6-416.1,272.3-855.1,533l-797.6,471.7l-172.6,283.8c-172.6,279.9-174.5,283.8-366.2,866.6L5043,464.3l-49.8,427.6c-74.8,642.3-74.8,642.3-661.5,755.4c-207.1,38.3-423.7,70.9-481.3,69C3792.9,1716.3,3254.1,1687.5,2652.1,1653z M3773.7,1192.8c0-207.1-1.9-220.5-38.3-220.5c-21.1,0-51.8-21.1-69-47.9c-26.8-40.3-26.8-61.4-7.7-143.8c26.8-109.3,86.3-164.9,153.4-143.8c28.8,9.6,57.5-3.8,103.5-44.1c105.5-92,276.1-180.2,513.9-262.7l226.2-78.6L4533,230.3c-222.4-38.3-444.8-166.8-533-308.7c-21.1-36.4-65.2-74.8-95.9-84.4c-74.8-26.8-93.9-82.4-67.1-195.6c23-103.5,82.5-157.2,153.4-138c34.5,7.7,57.5-1.9,92-40.3c44.1-47.9,253.1-159.1,299.1-159.1c44.1,0,44.1-34.5-1.9-117c-30.7-55.6-49.9-132.3-57.5-224.3l-11.5-140l88.2-113.1c90.1-115,141.9-149.6,184.1-122.7c13.4,9.6,103.5,17.3,197.5,17.3h172.6l-9.6-109.3c-5.7-61.3-21.1-120.8-34.5-134.2c-44.1-44.1-23-97.8,74.8-187.9l99.7-90.1l-327.9-506.2l-325.9-506.2l-465.9-9.6c-536.9-11.5-515.8-5.8-774.6-212.8c-143.8-113.1-149.6-116.9-233.9-103.5c-53.7,7.7-82.4,21.1-76.7,34.5c5.8,13.4,74.8,180.2,155.3,372c251.2,600.1,253.1,625,164.9,2059.2c-57.5,910.7-59.4,928-105.5,998.9c-111.2,168.7-381.5,297.2-749.7,360.4c-122.7,21.1-255,38.3-293.3,38.3c-187.9,0-398.8,128.5-483.2,291.4c-34.5,67.1-36.4,90.1-19.2,212.8c23,163,46,186,191.7,187.9c80.5,0,1781.2,95.9,2001.7,111.2C3769.9,1413.3,3773.7,1390.3,3773.7,1192.8z M4314.4,1340.5c163-30.7,295.3-65.2,310.6-80.5c26.8-28.8,120.8-778.4,101.6-799.5c-19.2-17.3-283.8,70.9-444.8,147.6c-205.2,97.8-209,101.6-186,145.7c30.7,57.5-13.4,216.7-67.1,251.2c-40.3,26.8-44.1,42.2-44.1,209c0,132.3,5.8,180.2,24.9,180.2C4021,1394.2,4159.1,1369.2,4314.4,1340.5z M1714.5,491.1c101.6-49.9,166.8-65.2,368.1-88.2c134.2-15.3,249.3-34.5,256.9-40.3c7.7-7.7,40.3-464,72.9-1012.4c65.2-1098.6,63.3-1190.7-28.8-1535.8c-59.4-222.4-128.5-375.8-306.8-678.7l-143.8-239.7l-619.3-63.3c-339.4-32.6-636.6-65.2-659.6-69c-38.3-9.6-44.1,3.8-74.8,138c-42.2,180.2-47.9,604-9.6,734.3c13.4,47.9,57.5,172.6,97.8,278c130.4,339.4,256.9,922.2,383.5,1783.1l55.6,383.5l157.2,329.8l157.2,329.8l84.4-93.9C1557.3,587,1637.8,527.5,1714.5,491.1z M2734.5,241.8C2876.4,170.9,2949.2,92.3,2949.2,6c0-34.5,26.8-479.3,59.4-991.3c61.4-970.2,61.4-1104.4-1.9-1349.8c-32.6-130.4-312.5-828.3-341.3-855.1c-11.5-9.6-245.4,26.8-458.3,70.9c-40.3,7.7-36.4,17.3,74.8,205.2c197.5,333.6,297.2,594.4,350.9,920.3c38.3,241.6,36.4,433.3-19.2,1355.6c-55.6,933.8-55.6,939.5-23,939.5C2606,301.3,2669.3,274.4,2734.5,241.8z M4820.6,40.5c32.6-9.6,57.5-59.4,122.7-249.3c44.1-132.3,76.7-245.4,69-251.2c-5.8-5.8-92-32.6-187.9-57.5c-168.7-42.2-184.1-42.2-291.4-15.3c-61.4,15.3-151.5,46-197.5,67.1c-76.7,34.5-82.4,40.3-63.3,78.6c23,42.2-1.9,193.7-40.3,239.7C4207-116.7,4370-15.1,4483.1,11.8C4646.1,50.1,4753.5,59.7,4820.6,40.5z M5048.7-803.1c88.2-7.7,99.7-15.3,136.1-82.4l38.3-72.9l-101.6-109.3C5020-1177,5018-1177,4889.6-1188.5l-128.5-9.6l-59.4,82.5c-34.5,46-84.4,107.4-113.1,136.1c-47.9,47.9-49.9,55.6-21.1,93.9c15.3,23,53.7,57.5,82.5,76.7C4705.5-772.4,4736.2-770.5,5048.7-803.1z M5447.5-1315c5.8-17.3-122.7-245.4-170.6-299.1c-3.8-3.8-30.7,13.4-63.3,38.3c-44.1,34.5-57.5,61.4-57.5,113.1c-1.9,90.1,11.5,105.4,122.7,140C5401.5-1286.3,5436-1284.4,5447.5-1315z M6444.6-1903.7c418-247.3,761.2-454.4,761.2-460.2c0-13.4-410.3-791.9-462.1-874.3c-21.1-36.4-51.8-65.2-65.2-65.2c-23,0-1733.3,740.1-1750.5,755.4c-3.8,3.8,151.5,253.1,345.1,556c239.7,372,360.4,546.5,381.5,542.6C5669.9-1451.2,6026.6-1656.3,6444.6-1903.7z M7865.3-2797.1c243.5-90.1,444.8-164.9,446.7-168.7c9.6-9.6-1152.3,11.5-1161.9,19.2c-11.5,9.6,24.9,86.3,105.4,232c63.3,115,69,118.9,118.9,99.7C7403.2-2626.5,7623.7-2708.9,7865.3-2797.1z M5537.7-3036.8c391.1-170.6,707.5-312.5,703.7-316.4c-11.5-11.5-1593.3,303-1610.6,318.3c-17.3,15.3,157.2,306.8,182.1,306.8C4820.6-2728.1,5146.5-2868.1,5537.7-3036.8z M4366.2-3176.8c42.2-38.3,1951.9-414.1,2103.3-414.1c214.7,0,395,122.7,506.2,345.1c23,47.9,44.1,88.2,47.9,92c1.9,1.9,433.3-5.8,956.7-15.3l952.9-21.1l184.1-67.1c101.6-36.4,197.5-72.9,210.9-82.4c38.3-21.1-287.6-143.8-538.8-203.2c-471.7-113.1-1039.2-163-1846.4-163c-711.3,0-1188.8,24.9-2019,107.4c-239.7,23-1436.1,228.2-1579.9,270.4c-34.5,9.6-30.7,17.2,28.8,67.1c122.7,105.4,147.6,109.3,571.4,111.2C4258.8-3149.9,4343.2-3155.7,4366.2-3176.8z M2134.4-3326.3c5.7-5.8-3.8-90.1-21.1-189.8c-34.5-199.4-44.1-561.8-21.1-784.2l13.4-143.8l-214.7,5.8c-118.9,3.8-224.3,15.3-235.8,24.9c-32.6,32.6-21.1,638.5,17.3,803.4c67.1,297.2,59.4,283.8,151.5,293.3C1925.4-3305.2,2120.9-3311,2134.4-3326.3z M1503.6-3422.2c-53.7-266.5-70.9-421.8-70.9-659.6c0-147.6,5.8-283.8,13.4-301c11.5-28.8-9.6-32.6-199.4-32.6h-212.8l-15.3,72.9c-7.7,38.3-15.3,182.1-13.4,320.2c0,255,46,492.8,113.1,598.2c28.8,42.2,70.9,51.8,304.9,59.4l93.9,3.8L1503.6-3422.2z M2581.1-3393.4l180.2-32.6l-11.5-76.7c-26.8-193.6-34.5-680.7-13.4-814.9c11.5-76.7,19.2-143.8,17.3-147.6c-3.8-1.9-103.5,0-220.5,5.8c-253.1,13.4-232-19.2-249.3,370c-7.7,193.7-1.9,314.4,21.1,477.4c19.2,120.8,38.3,228.2,42.2,235.8C2360.6-3355.1,2374-3357,2581.1-3393.4z M888.1-3450.9c-90.1-233.9-126.5-678.7-72.9-901.2c9.6-42.2,5.7-44.1-124.6-44.1H554.5l-69,140c-111.2,226.2-111.2,408.4,3.8,636.6c86.3,172.6,107.4,186,349,197.5C891.9-3418.3,899.6-3424.1,888.1-3450.9z M9596.7-3755.8c-5.8-101.6-23-199.4-40.3-232c-55.6-111.2-268.4-218.6-665.3-339.4c-166.8-49.8-665.3-164.9-717.1-164.9c-3.8,0-13.4,49.8-21.1,111.2c-15.4,128.5-72.9,327.9-124.6,429.5l-36.4,70.9l63.3,9.6c32.6,5.8,164.9,23,291.4,40.3c448.7,61.4,820.6,163,1092.9,301l134.2,69l17.3-61.4C9598.6-3554.5,9602.4-3660,9596.7-3755.8z M3208.1-3510.4l172.6-32.6l-9.6-105.4c-5.8-57.5-9.6-272.3-7.7-477.4v-370l-113.1,11.5c-63.3,5.8-151.5,11.5-197.5,11.5h-80.5l-19.2,92c-38.3,170.7-46,414.1-24.9,627c13.4,117,26.8,226.2,32.6,245.4C2974.2-3468.2,2989.5-3468.2,3208.1-3510.4z M3827.4-3627.4c95.9-19.2,180.2-38.3,184.1-42.2c3.8-3.8,0-51.8-9.6-103.5c-23-118.9-28.8-500.4-9.6-640.4l15.3-103.5l-207.1,15.3c-115,7.7-210.9,15.3-212.8,17.2c-1.9,1.9-15.3,90.1-26.8,195.6c-19.2,174.5-15.3,372,15.3,607.8C3589.6-3575.6,3578.1-3577.5,3827.4-3627.4z M4479.3-3746.2l157.2-24.9l-13.4-116.9c-19.2-143.8-19.2-408.4-1.9-544.5l13.4-103.5l-203.2,13.4c-111.2,5.8-207.1,15.4-210.9,19.2c-26.8,24.9-47.9,301-36.4,481.3c15.3,295.3,23,322.1,86.3,310.6C4297.1-3717.5,4391.1-3732.8,4479.3-3746.2z M5196.4-3832.5l72.9-11.5l-15.3-78.6c-7.7-44.1-13.4-205.2-11.5-356.6v-274.2l-187.9,7.7c-111.2,5.8-199.4,19.2-212.8,32.6c-26.9,26.9-32.6,569.5-7.7,659.6l15.3,55.6l138-11.5C5064.1-3817.2,5158-3826.7,5196.4-3832.5z M5884.7-3890c5.7-3.8,3.8-55.6-5.8-117c-11.5-61.4-15.3-209-9.6-325.9l7.7-216.7h-207.1c-115,0-209,1.9-209,5.8c0,1.9-9.6,76.7-19.2,166.8c-17.3,151.5,1.9,454.4,32.6,502.3C5482-3859.3,5855.9-3872.8,5884.7-3890z M6415.8-3909.2l99.7-13.4v-312.5v-314.4h-209c-172.6,0-210.9,5.8-220.5,30.7c-15.3,38.3-15.3,456.3,0,550.3l13.4,70.9h107.4C6266.2-3897.7,6360.2-3903.4,6415.8-3909.2z M7840.4-4022.3c69-153.4,113.1-318.3,113.1-423.7v-78.6l-88.2-13.4c-49.9-5.7-182.1-11.5-297.2-11.5H7363l-1.9,197.5c0,107.4-9.6,241.6-21.1,299.1c-9.6,55.6-19.2,109.3-19.2,118.9c0,17.3,101.6,28.8,312.5,32.6l149.5,3.8L7840.4-4022.3z M7127.1-4010.8c30.7-140,47.9-391.1,32.6-469.7l-13.4-69h-218.6h-220.5v316.4v316.4h199.4H7106L7127.1-4010.8z"/></g></g>
</svg>